# xmcd
# Copyright (C) 1995-1998 Ti Kan
#
# Track frame offsets:
#       150
#       20918
#       36780
#       54433
#       70807
#       93556
#       109638
#       130782
#       147340
#       167122
#
# Disc length: 2621 seconds
#
# Revision: 0
# Processed by: cddbd v1.5.2PL0 Copyright (c) Steve Scherf et al.
# Submitted via: CD-Import v1.0
#
DISCID=8a0a3b0a
DTITLE=Bloc Party - Intimacy
DYEAR=2008
DGENRE=
TTITLE0=Zephyrus
TTITLE1=Ares
TTITLE2=Mercury
TTITLE3=Halo
TTITLE4=Biko
TTITLE5=Trojan Horse
TTITLE6=Signs
TTITLE7=One Month Off
TTITLE8=Better Than Heaven
TTITLE9=Ion Square
EXTD=
EXTT0=
EXTT1=
EXTT2=
EXTT3=
EXTT4=
EXTT5=
EXTT6=
EXTT7=
EXTT8=
EXTT9=
PLAYORDER=
